<svg xmlns="http://www.w3.org/2000/svg" xmlns:xlink="http://www.w3.org/1999/xlink" width="94.697" height="22.808" viewBox="0 0 94.697 22.808">
  <defs>
    <clipPath id="clip-path">
      <rect id="Rectángulo_27" data-name="Rectángulo 27" width="94.697" height="22.808" fill="none"/>
    </clipPath>
    <clipPath id="clip-path-2">
      <rect id="Rectángulo_26" data-name="Rectángulo 26" width="94.698" height="22.807" fill="none"/>
    </clipPath>
    <clipPath id="clip-path-3">
      <rect id="Rectángulo_15" data-name="Rectángulo 15" width="14.869" height="16.208" fill="none"/>
    </clipPath>
    <clipPath id="clip-path-4">
      <rect id="Rectángulo_17" data-name="Rectángulo 17" width="4.444" height="22.075" fill="none"/>
    </clipPath>
    <clipPath id="clip-path-5">
      <rect id="Rectángulo_18" data-name="Rectángulo 18" width="15.625" height="16.137" fill="none"/>
    </clipPath>
    <clipPath id="clip-path-6">
      <rect id="Rectángulo_19" data-name="Rectángulo 19" width="17.12" height="17.103" fill="none"/>
    </clipPath>
    <clipPath id="clip-path-7">
      <rect id="Rectángulo_21" data-name="Rectángulo 21" width="4.444" height="15.772" fill="none"/>
    </clipPath>
    <clipPath id="clip-path-9">
      <rect id="Rectángulo_24" data-name="Rectángulo 24" width="14.472" height="16.15" fill="none"/>
    </clipPath>
    <clipPath id="clip-path-10">
      <rect id="Rectángulo_25" data-name="Rectángulo 25" width="3.898" height="3.898" fill="none"/>
    </clipPath>
  </defs>
  <g id="Grupo_56" data-name="Grupo 56" style="isolation: isolate">
    <g id="Grupo_55" data-name="Grupo 55" clip-path="url(#clip-path)">
      <g id="Grupo_54" data-name="Grupo 54" transform="translate(0 0.001)">
        <g id="Grupo_53" data-name="Grupo 53" clip-path="url(#clip-path-2)">
          <g id="Grupo_31" data-name="Grupo 31" transform="translate(0 6.302)" style="mix-blend-mode: overlay;isolation: isolate">
            <g id="Grupo_30" data-name="Grupo 30">
              <g id="Grupo_29" data-name="Grupo 29" clip-path="url(#clip-path-3)">
                <path id="Trazado_9" data-name="Trazado 9" d="M11.679,2.248a5.5,5.5,0,0,1,2.394,2.136,6.034,6.034,0,0,1,.8,3.136v9.738h-4.3V14.353a6.052,6.052,0,0,1-1.937,2.394,5.467,5.467,0,0,1-3.222.855,5.846,5.846,0,0,1-2.733-.656A4.97,4.97,0,0,1,.715,15.154,4.828,4.828,0,0,1,0,12.534,3.628,3.628,0,0,1,1.8,9.113,11.355,11.355,0,0,1,6.412,7.832l4.073-.4V7.176a2.841,2.841,0,0,0-.71-2.023A2.7,2.7,0,0,0,7.72,4.384a2.884,2.884,0,0,0-1.905.6A2.3,2.3,0,0,0,4.96,6.466H.57A5.441,5.441,0,0,1,1.738,3.728,5.915,5.915,0,0,1,4.217,1.99a9.634,9.634,0,0,1,3.5-.6,8.969,8.969,0,0,1,3.932.769ZM8.946,14.412a3.39,3.39,0,0,0,1.167-1.539,6.019,6.019,0,0,0,.4-2.222v-.624l-2.475.253a11.233,11.233,0,0,0-1.855.344,2.732,2.732,0,0,0-1.195.683A1.744,1.744,0,0,0,4.5,12.588a2.358,2.358,0,0,0,.344,1.281,2.253,2.253,0,0,0,.937.855,2.978,2.978,0,0,0,1.339.285,3.1,3.1,0,0,0,1.851-.57Z" transform="translate(0 -1.392)" fill="#fff"/>
              </g>
            </g>
          </g>
          <g id="Grupo_34" data-name="Grupo 34" transform="translate(17.808 -0.001)" style="mix-blend-mode: overlay;isolation: isolate">
            <g id="Grupo_33" data-name="Grupo 33" transform="translate(0 0)">
              <g id="Grupo_32" data-name="Grupo 32" clip-path="url(#clip-path-4)">
                <rect id="Rectángulo_16" data-name="Rectángulo 16" width="4.444" height="22.074" transform="translate(-0.001 0.001)" fill="#fff"/>
              </g>
            </g>
          </g>
          <g id="Grupo_37" data-name="Grupo 37" transform="translate(24.816 6.315)" style="mix-blend-mode: overlay;isolation: isolate">
            <g id="Grupo_36" data-name="Grupo 36">
              <g id="Grupo_35" data-name="Grupo 35" clip-path="url(#clip-path-5)">
                <path id="Trazado_10" data-name="Trazado 10" d="M9.95,10.731a4.95,4.95,0,0,0,1.113,2.846,2.978,2.978,0,0,0,2.3.968,3.457,3.457,0,0,0,1.91-.484,3.161,3.161,0,0,0,1.136-1.453H20.8a6.567,6.567,0,0,1-2.706,3.67,8.6,8.6,0,0,1-4.751,1.253A8.14,8.14,0,0,1,9.213,16.51a7.048,7.048,0,0,1-2.76-2.878,8.691,8.691,0,0,1-.968-4.181,8.734,8.734,0,0,1,1-4.186A7.09,7.09,0,0,1,9.267,2.419a8.132,8.132,0,0,1,4.1-1.023,7.968,7.968,0,0,1,4.1,1.023,6.857,6.857,0,0,1,2.7,2.846,9.227,9.227,0,0,1,.941,4.272,8.778,8.778,0,0,1-.086,1.195Zm1.14-5.494a4.409,4.409,0,0,0-1.14,2.62H16.7A4.232,4.232,0,0,0,15.616,5.3a3.017,3.017,0,0,0-2.276-.941,3.1,3.1,0,0,0-2.222.855Z" transform="translate(-5.484 -1.394)" fill="#fff"/>
              </g>
            </g>
          </g>
          <g id="Grupo_40" data-name="Grupo 40" transform="translate(41.161 5.704)" style="mix-blend-mode: overlay;isolation: isolate">
            <g id="Grupo_39" data-name="Grupo 39">
              <g id="Grupo_38" data-name="Grupo 38" clip-path="url(#clip-path-6)">
                <path id="Trazado_11" data-name="Trazado 11" d="M9.1,1.41l3.638,4.96s3.846-.443,4.914,2.964V6.518L14.119,1.4Z" transform="translate(-9.096 -0.784)" fill="#fff"/>
                <path id="Trazado_12" data-name="Trazado 12" d="M18.91,1.261,13.95,4.9s.443,3.846-2.964,4.914H13.8l5.122-3.53Z" transform="translate(-2.433 -1.26)" fill="#fff"/>
                <path id="Trazado_13" data-name="Trazado 13" d="M19.542,11.075,15.9,6.115s-3.846.443-4.914-2.964V5.966l3.53,5.122Z" transform="translate(-2.423 5.403)" fill="#fff"/>
                <path id="Trazado_14" data-name="Trazado 14" d="M9.249,11.7l4.96-3.638s-.443-3.846,2.964-4.914H14.357L9.235,6.68Z" transform="translate(-8.606 5.399)" fill="#fff"/>
              </g>
            </g>
          </g>
          <g id="Grupo_43" data-name="Grupo 43" transform="translate(60.379 6.302)" style="mix-blend-mode: overlay;isolation: isolate">
            <g id="Grupo_42" data-name="Grupo 42">
              <g id="Grupo_41" data-name="Grupo 41" clip-path="url(#clip-path-7)">
                <rect id="Rectángulo_20" data-name="Rectángulo 20" width="4.444" height="15.77" transform="translate(0 0.001)" fill="#fff"/>
              </g>
            </g>
          </g>
          <g id="Grupo_46" data-name="Grupo 46" transform="translate(67.387 6.302)" style="mix-blend-mode: overlay;isolation: isolate">
            <g id="Grupo_45" data-name="Grupo 45">
              <g id="Grupo_44" data-name="Grupo 44" clip-path="url(#clip-path-7)">
                <rect id="Rectángulo_22" data-name="Rectángulo 22" width="4.444" height="15.77" transform="translate(0.001 0.001)" fill="#fff"/>
              </g>
            </g>
          </g>
          <g id="Grupo_49" data-name="Grupo 49" transform="translate(74.395 6.302)" style="mix-blend-mode: overlay;isolation: isolate">
            <g id="Grupo_48" data-name="Grupo 48">
              <g id="Grupo_47" data-name="Grupo 47" clip-path="url(#clip-path-9)">
                <path id="Trazado_15" data-name="Trazado 15" d="M18.743,16.406a5.262,5.262,0,0,1-2.3-3.751h4.38a2.152,2.152,0,0,0,1.023,1.534,3.856,3.856,0,0,0,1.959.484,4.581,4.581,0,0,0,2.19-.43,1.309,1.309,0,0,0,.769-1.19,1.356,1.356,0,0,0-.258-.828,2.042,2.042,0,0,0-.851-.6A11.148,11.148,0,0,0,24,11.117l-2.729-.6a7.062,7.062,0,0,1-3.412-1.534,3.568,3.568,0,0,1-1.136-2.756,3.957,3.957,0,0,1,.91-2.534,5.763,5.763,0,0,1,2.444-1.706,9.318,9.318,0,0,1,3.385-.6,9.923,9.923,0,0,1,3.272.516,6.654,6.654,0,0,1,2.5,1.475A4.882,4.882,0,0,1,30.6,5.831h-4.38a1.978,1.978,0,0,0-.991-1.109,3.584,3.584,0,0,0-1.706-.4,3.933,3.933,0,0,0-1.851.4A1.2,1.2,0,0,0,20.933,5.8a1.051,1.051,0,0,0,.6.968,7.4,7.4,0,0,0,1.905.624l2.729.6a7.52,7.52,0,0,1,3.584,1.652A3.942,3.942,0,0,1,30.911,12.6a3.959,3.959,0,0,1-.937,2.643,5.875,5.875,0,0,1-2.588,1.706,11.041,11.041,0,0,1-3.751.6,8.656,8.656,0,0,1-4.892-1.136" transform="translate(-16.442 -1.396)" fill="#fff"/>
              </g>
            </g>
          </g>
          <g id="Grupo_52" data-name="Grupo 52" transform="translate(90.799 17.506)" style="mix-blend-mode: overlay;isolation: isolate">
            <g id="Grupo_51" data-name="Grupo 51">
              <g id="Grupo_50" data-name="Grupo 50" clip-path="url(#clip-path-10)">
                <path id="Trazado_16" data-name="Trazado 16" d="M23.962,5.819a1.948,1.948,0,1,1-1.95-1.95,1.951,1.951,0,0,1,1.95,1.95" transform="translate(-20.063 -3.868)" fill="#b3b3b3"/>
              </g>
            </g>
          </g>
        </g>
      </g>
    </g>
  </g>
</svg>
